Coordinates
version=1
nRows=12
nColumns=24
inDegrees=yes

Units are S.I. units (second, meters, Newtons, ...)
Angles are in degrees.

endheader
time	pelvis_tilt	pelvis_list	pelvis_rotation	pelvis_tx	pelvis_ty	pelvis_tz	hip_flexion_r	hip_adduction_r	hip_rotation_r	knee_angle_r	ankle_angle_r	subtalar_angle_r	mtp_angle_r	hip_flexion_l	hip_adduction_l	hip_rotation_l	knee_angle_l	ankle_angle_l	subtalar_angle_l	mtp_angle_l	lumbar_extension	lumbar_bending	lumbar_rotation
      4.49000000	     -2.86004579	      9.43119679	     -5.00300339	      0.42638881	      1.01092859	     -0.18088848	      9.94326311	    -13.57190174	     -4.38577474	    -64.04017171	    -10.97580608	     -2.49798705	      0.00000000	     19.64075680	     11.28268253	     -7.83501366	    -18.47663206	      9.59284907	     -7.87689239	      0.00000000	     -7.50457678	    -12.57348450	      2.71527432
      4.49500000	     -2.79377667	      9.47987429	     -5.00566861	      0.43276312	      1.01181721	     -0.18144002	     10.70791220	    -13.58634379	     -4.28622971	    -64.85224982	     -9.67097127	     -2.42625109	      0.00000000	     19.04313356	     11.46492289	     -7.64127768	    -18.19593049	      9.80388472	     -7.98682657	      0.00000000	     -7.59022068	    -12.57068983	      2.51511049
      4.50000000	     -2.72850391	      9.50844939	     -4.99430104	      0.43919334	      1.01274861	     -0.18199016	     11.44596509	    -13.57309732	     -4.20337731	    -65.57486266	     -8.22729756	     -2.23675826	      0.00000000	     18.41217645	     11.63293357	     -7.39372627	    -17.86711258	     10.00323915	     -8.07957573	      0.00000000	     -7.65682328	    -12.54288346	      2.29346630
      4.50500000	     -2.65779561	      9.52317352	     -4.96796469	      0.44558802	      1.01369866	     -0.18259453	     12.16552540	    -13.55192523	     -4.16006315	    -66.22295644	     -6.71647407	     -2.01428573	      0.00000000	     17.76512529	     11.79656339	     -7.12337655	    -17.51727217	     10.15628246	     -8.22458829	      0.00000000	     -7.74040807	    -12.49097372	      2.07564604
      4.51000000	     -2.56890342	      9.53845936	     -4.92345307	      0.45195847	      1.01466767	     -0.18330788	     12.85405012	    -13.55400301	     -4.17466339	    -66.79870890	     -5.18180555	     -1.78131698	      0.00000000	     17.08932552	     11.97917508	     -6.83291117	    -17.14043523	     10.24424857	     -8.47892829	      0.00000000	     -7.84960026	    -12.42257377	      1.84990114
      4.51500000	     -2.48587679	      9.51260025	     -4.86464642	      0.45835671	      1.01567699	     -0.18398643	     13.51991939	    -13.50305547	     -4.21616049	    -67.27944838	     -3.69506520	     -1.56999366	      0.00000000	     16.39084008	     12.11648480	     -6.49047534	    -16.73312627	     10.34480077	     -8.67262126	      0.00000000	     -7.94458443	    -12.31234109	      1.61122240
      4.52000000	     -2.38012168	      9.49850920	     -4.78664972	      0.46477729	      1.01673684	     -0.18471105	     14.14131082	    -13.47847774	     -4.30637363	    -67.67840606	     -2.25426466	     -1.40229814	      0.00000000	     15.64105678	     12.28019366	     -6.06897961	    -16.27377932	     10.33720463	     -8.95810881	      0.00000000	     -8.06077745	    -12.21386233	      1.37255884
      4.52500000	     -2.30202110	      9.42131722	     -4.70011306	      0.47115346	      1.01774535	     -0.18544697	     14.77545626	    -13.37802102	     -4.40778785	    -68.00710262	     -0.89802465	     -1.22721963	      0.00000000	     14.92782901	     12.36706293	     -5.70277010	    -15.84432625	     10.43249914	     -9.17006257	      0.00000000	     -8.15518236	    -12.03096741	      1.11319377
      4.53000000	     -2.18359098	      9.37691756	     -4.59219053	      0.47756635	      1.01882454	     -0.18622675	     15.34641538	    -13.32855242	     -4.55799258	    -68.25480345	      0.36450822	     -1.13072094	      0.00000000	     14.13011733	     12.50767800	     -5.17765863	    -15.33542516	     10.37374642	     -9.52605493	      0.00000000	     -8.29000593	    -11.89131075	      0.84601598
      4.53500000	     -2.10931191	      9.26562232	     -4.47521501	      0.48394135	      1.01984476	     -0.18698894	     15.94102269	    -13.19686364	     -4.72196330	    -68.42891469	      1.56123308	     -1.00369213	      0.00000000	     13.39765218	     12.55694011	     -4.78484083	    -14.87358453	     10.40396635	     -9.76634177	      0.00000000	     -8.37610377	    -11.66638107	      0.58609438
      4.54000000	     -2.00677400	      9.17198343	     -4.33404384	      0.49034083	      1.02091198	     -0.18776095	     16.48107131	    -13.08889292	     -4.92135546	    -68.52394833	      2.66264711	     -0.94614029	      0.00000000	     12.59810500	     12.63438961	     -4.24051778	    -14.34985618	     10.31866034	    -10.10677157	      0.00000000	     -8.49526225	    -11.46876184	      0.31428416
      4.54500000	     -1.91175030	      9.04535880	     -4.19399435	      0.49671690	      1.02195156	     -0.18852331	     17.01437748	    -12.94056304	     -5.12863018	    -68.55076749	      3.67964841	     -0.88611543	      0.00000000	     11.80604140	     12.66640210	     -3.73176156	    -13.82960137	     10.26641829	    -10.41987048	      0.00000000	     -8.60602565	    -11.23019067	      0.04358300
